<mxfile host="app.diagrams.net" agent="Mozilla/5.0 (Windows NT 10.0; Win64; x64) AppleWebKit/537.36 (KHTML, like Gecko) Chrome/131.0.0.0 Safari/537.36" version="25.0.3">
  <diagram name="PÃ¡gina-1" id="CIpzRP56wVD96cMPjTuV">
    <mxGraphModel dx="1361" dy="719" grid="1" gridSize="10" guides="1" tooltips="1" connect="1" arrows="1" fold="1" page="1" pageScale="1" pageWidth="1169" pageHeight="827" math="0" shadow="0">
      <root>
        <mxCell id="0" />
        <mxCell id="1" parent="0" />
        <mxCell id="iIRl_dLn_Y5YrKz6m_M_-26" value="" style="rounded=0;whiteSpace=wrap;html=1;fillColor=none;" vertex="1" parent="1">
          <mxGeometry x="160" y="330" width="910" height="200" as="geometry" />
        </mxCell>
        <mxCell id="iIRl_dLn_Y5YrKz6m_M_-16" style="edgeStyle=orthogonalEdgeStyle;rounded=0;orthogonalLoop=1;jettySize=auto;html=1;entryX=0;entryY=0.5;entryDx=0;entryDy=0;" edge="1" parent="1" source="iIRl_dLn_Y5YrKz6m_M_-4" target="iIRl_dLn_Y5YrKz6m_M_-1">
          <mxGeometry relative="1" as="geometry" />
        </mxCell>
        <mxCell id="iIRl_dLn_Y5YrKz6m_M_-4" value="Model joblib" style="shape=cylinder3;whiteSpace=wrap;html=1;boundedLbl=1;backgroundOutline=1;size=15;" vertex="1" parent="1">
          <mxGeometry x="397" y="400" width="60" height="80" as="geometry" />
        </mxCell>
        <mxCell id="iIRl_dLn_Y5YrKz6m_M_-9" value="" style="group" vertex="1" connectable="0" parent="1">
          <mxGeometry x="207" y="400" width="80" height="80" as="geometry" />
        </mxCell>
        <mxCell id="iIRl_dLn_Y5YrKz6m_M_-2" value="Model train" style="whiteSpace=wrap;html=1;aspect=fixed;" vertex="1" parent="iIRl_dLn_Y5YrKz6m_M_-9">
          <mxGeometry width="80" height="80" as="geometry" />
        </mxCell>
        <mxCell id="iIRl_dLn_Y5YrKz6m_M_-5" value="" style="shape=image;html=1;verticalAlign=top;verticalLabelPosition=bottom;labelBackgroundColor=#ffffff;imageAspect=0;aspect=fixed;image=https://cdn0.iconfinder.com/data/icons/social-media-2104/24/social_media_social_media_logo_docker-128.png" vertex="1" parent="iIRl_dLn_Y5YrKz6m_M_-9">
          <mxGeometry x="60" y="2" width="18" height="18" as="geometry" />
        </mxCell>
        <mxCell id="iIRl_dLn_Y5YrKz6m_M_-10" value="" style="group" vertex="1" connectable="0" parent="1">
          <mxGeometry x="560" y="400" width="80" height="80" as="geometry" />
        </mxCell>
        <mxCell id="iIRl_dLn_Y5YrKz6m_M_-1" value="Model API" style="whiteSpace=wrap;html=1;aspect=fixed;" vertex="1" parent="iIRl_dLn_Y5YrKz6m_M_-10">
          <mxGeometry width="80" height="80" as="geometry" />
        </mxCell>
        <mxCell id="iIRl_dLn_Y5YrKz6m_M_-8" value="" style="shape=image;html=1;verticalAlign=top;verticalLabelPosition=bottom;labelBackgroundColor=#ffffff;imageAspect=0;aspect=fixed;image=https://cdn0.iconfinder.com/data/icons/social-media-2104/24/social_media_social_media_logo_docker-128.png" vertex="1" parent="iIRl_dLn_Y5YrKz6m_M_-10">
          <mxGeometry x="60" y="2" width="18" height="18" as="geometry" />
        </mxCell>
        <mxCell id="iIRl_dLn_Y5YrKz6m_M_-12" value="" style="group" vertex="1" connectable="0" parent="1">
          <mxGeometry x="840" y="400" width="80" height="80" as="geometry" />
        </mxCell>
        <mxCell id="iIRl_dLn_Y5YrKz6m_M_-22" style="edgeStyle=orthogonalEdgeStyle;rounded=0;orthogonalLoop=1;jettySize=auto;html=1;" edge="1" parent="iIRl_dLn_Y5YrKz6m_M_-12" source="iIRl_dLn_Y5YrKz6m_M_-3">
          <mxGeometry relative="1" as="geometry">
            <mxPoint x="270" y="40" as="targetPoint" />
          </mxGeometry>
        </mxCell>
        <mxCell id="iIRl_dLn_Y5YrKz6m_M_-28" value="http://localhost:8501" style="edgeLabel;html=1;align=center;verticalAlign=middle;resizable=0;points=[];" vertex="1" connectable="0" parent="iIRl_dLn_Y5YrKz6m_M_-22">
          <mxGeometry x="-0.2228" relative="1" as="geometry">
            <mxPoint as="offset" />
          </mxGeometry>
        </mxCell>
        <mxCell id="iIRl_dLn_Y5YrKz6m_M_-3" value="Streamlit" style="whiteSpace=wrap;html=1;aspect=fixed;" vertex="1" parent="iIRl_dLn_Y5YrKz6m_M_-12">
          <mxGeometry width="80" height="80" as="geometry" />
        </mxCell>
        <mxCell id="iIRl_dLn_Y5YrKz6m_M_-11" value="" style="shape=image;html=1;verticalAlign=top;verticalLabelPosition=bottom;labelBackgroundColor=#ffffff;imageAspect=0;aspect=fixed;image=https://cdn0.iconfinder.com/data/icons/social-media-2104/24/social_media_social_media_logo_docker-128.png" vertex="1" parent="iIRl_dLn_Y5YrKz6m_M_-12">
          <mxGeometry x="60" y="2" width="18" height="18" as="geometry" />
        </mxCell>
        <mxCell id="iIRl_dLn_Y5YrKz6m_M_-15" style="edgeStyle=orthogonalEdgeStyle;rounded=0;orthogonalLoop=1;jettySize=auto;html=1;" edge="1" parent="1" source="iIRl_dLn_Y5YrKz6m_M_-2" target="iIRl_dLn_Y5YrKz6m_M_-4">
          <mxGeometry relative="1" as="geometry" />
        </mxCell>
        <mxCell id="iIRl_dLn_Y5YrKz6m_M_-17" style="edgeStyle=orthogonalEdgeStyle;rounded=0;orthogonalLoop=1;jettySize=auto;html=1;entryX=0;entryY=0.5;entryDx=0;entryDy=0;" edge="1" parent="1" source="iIRl_dLn_Y5YrKz6m_M_-1" target="iIRl_dLn_Y5YrKz6m_M_-3">
          <mxGeometry relative="1" as="geometry" />
        </mxCell>
        <mxCell id="iIRl_dLn_Y5YrKz6m_M_-21" value="http://localhost:5000" style="edgeLabel;html=1;align=center;verticalAlign=middle;resizable=0;points=[];" vertex="1" connectable="0" parent="iIRl_dLn_Y5YrKz6m_M_-17">
          <mxGeometry x="0.0402" y="1" relative="1" as="geometry">
            <mxPoint as="offset" />
          </mxGeometry>
        </mxCell>
        <mxCell id="iIRl_dLn_Y5YrKz6m_M_-25" value="" style="shape=actor;whiteSpace=wrap;html=1;" vertex="1" parent="1">
          <mxGeometry x="1120" y="405.5" width="40" height="49" as="geometry" />
        </mxCell>
        <mxCell id="iIRl_dLn_Y5YrKz6m_M_-27" value="Docker compose" style="text;html=1;align=center;verticalAlign=middle;whiteSpace=wrap;rounded=0;" vertex="1" parent="1">
          <mxGeometry x="154" y="325" width="110" height="30" as="geometry" />
        </mxCell>
      </root>
    </mxGraphModel>
  </diagram>
</mxfile>
